<svg xmlns="http://www.w3.org/2000/svg" width="914" height="980" viewBox="0 0 914 980" stroke="none" fill="black">
<path d="M 596.0 722.0 L 592.0 726.0 L 589.0 733.0 L 589.0 739.0 L 591.0 744.0 L 599.0 750.0 L 605.0 751.0 L 606.0 752.0 L 610.0 752.0 L 611.0 753.0 L 615.0 753.0 L 616.0 754.0 L 621.0 755.0 L 629.0 760.0 L 642.0 772.0 L 649.0 782.0 L 653.0 793.0 L 654.0 803.0 L 658.0 811.0 L 661.0 814.0 L 665.0 816.0 L 674.0 816.0 L 678.0 814.0 L 683.0 809.0 L 685.0 805.0 L 685.0 792.0 L 684.0 791.0 L 684.0 787.0 L 683.0 786.0 L 683.0 783.0 L 682.0 782.0 L 680.0 774.0 L 674.0 762.0 L 667.0 752.0 L 652.0 737.0 L 643.0 731.0 L 631.0 725.0 L 629.0 725.0 L 626.0 723.0 L 623.0 723.0 L 619.0 721.0 L 614.0 721.0 L 613.0 720.0 L 600.0 720.0 Z" fill-rule="evenodd"/>
<path d="M 320.0 723.0 L 312.0 720.0 L 301.0 720.0 L 300.0 721.0 L 296.0 721.0 L 295.0 722.0 L 292.0 722.0 L 291.0 723.0 L 286.0 724.0 L 283.0 726.0 L 279.0 727.0 L 277.0 729.0 L 272.0 731.0 L 266.0 735.0 L 250.0 750.0 L 240.0 764.0 L 235.0 774.0 L 235.0 776.0 L 232.0 783.0 L 232.0 786.0 L 231.0 787.0 L 231.0 791.0 L 230.0 792.0 L 230.0 805.0 L 232.0 809.0 L 237.0 814.0 L 241.0 816.0 L 250.0 816.0 L 254.0 814.0 L 258.0 810.0 L 261.0 803.0 L 262.0 793.0 L 268.0 779.0 L 274.0 771.0 L 286.0 760.0 L 294.0 755.0 L 316.0 750.0 L 324.0 744.0 L 326.0 739.0 L 326.0 732.0 L 324.0 727.0 Z" fill-rule="evenodd"/>
<path d="M 694.0 591.0 L 689.0 596.0 L 687.0 600.0 L 687.0 609.0 L 688.0 610.0 L 688.0 612.0 L 696.0 619.0 L 715.0 623.0 L 728.0 630.0 L 735.0 636.0 L 735.0 637.0 L 741.0 643.0 L 744.0 649.0 L 746.0 651.0 L 750.0 661.0 L 752.0 672.0 L 755.0 679.0 L 762.0 685.0 L 773.0 685.0 L 774.0 684.0 L 776.0 684.0 L 781.0 678.0 L 781.0 676.0 L 783.0 672.0 L 783.0 660.0 L 782.0 659.0 L 782.0 655.0 L 775.0 637.0 L 773.0 635.0 L 769.0 627.0 L 762.0 618.0 L 752.0 608.0 L 744.0 602.0 L 728.0 594.0 L 726.0 594.0 L 719.0 591.0 L 716.0 591.0 L 715.0 590.0 L 711.0 590.0 L 710.0 589.0 L 699.0 589.0 Z" fill-rule="evenodd"/>
<path d="M 222.0 592.0 L 215.0 589.0 L 205.0 589.0 L 204.0 590.0 L 200.0 590.0 L 199.0 591.0 L 189.0 593.0 L 174.0 600.0 L 168.0 604.0 L 151.0 620.0 L 144.0 630.0 L 138.0 641.0 L 138.0 643.0 L 136.0 646.0 L 136.0 649.0 L 134.0 653.0 L 134.0 656.0 L 133.0 657.0 L 133.0 661.0 L 132.0 662.0 L 132.0 673.0 L 134.0 678.0 L 137.0 682.0 L 142.0 685.0 L 152.0 685.0 L 156.0 683.0 L 161.0 678.0 L 163.0 674.0 L 163.0 668.0 L 164.0 667.0 L 164.0 662.0 L 165.0 661.0 L 166.0 656.0 L 170.0 648.0 L 177.0 639.0 L 192.0 627.0 L 204.0 622.0 L 219.0 619.0 L 227.0 612.0 L 227.0 610.0 L 228.0 609.0 L 228.0 600.0 L 226.0 596.0 Z" fill-rule="evenodd"/>
<path d="M 617.0 562.0 L 612.0 558.0 L 610.0 558.0 L 609.0 557.0 L 603.0 557.0 L 602.0 556.0 L 587.0 558.0 L 586.0 559.0 L 578.0 561.0 L 566.0 567.0 L 555.0 575.0 L 543.0 587.0 L 537.0 595.0 L 529.0 610.0 L 529.0 612.0 L 526.0 619.0 L 525.0 629.0 L 524.0 630.0 L 524.0 642.0 L 528.0 649.0 L 536.0 653.0 L 541.0 653.0 L 542.0 652.0 L 547.0 651.0 L 553.0 644.0 L 553.0 642.0 L 555.0 638.0 L 555.0 635.0 L 556.0 634.0 L 557.0 625.0 L 563.0 613.0 L 582.0 595.0 L 592.0 590.0 L 608.0 587.0 L 614.0 584.0 L 617.0 581.0 L 620.0 573.0 L 619.0 566.0 Z" fill-rule="evenodd"/>
<path d="M 303.0 558.0 L 296.0 566.0 L 296.0 570.0 L 295.0 572.0 L 296.0 573.0 L 297.0 580.0 L 302.0 585.0 L 306.0 587.0 L 319.0 589.0 L 320.0 590.0 L 325.0 591.0 L 333.0 595.0 L 342.0 602.0 L 354.0 616.0 L 358.0 625.0 L 361.0 641.0 L 364.0 647.0 L 368.0 651.0 L 373.0 652.0 L 374.0 653.0 L 379.0 653.0 L 387.0 649.0 L 391.0 642.0 L 390.0 623.0 L 389.0 622.0 L 389.0 619.0 L 388.0 618.0 L 386.0 610.0 L 380.0 598.0 L 372.0 587.0 L 356.0 572.0 L 341.0 563.0 L 339.0 563.0 L 336.0 561.0 L 334.0 561.0 L 327.0 558.0 L 323.0 558.0 L 322.0 557.0 L 308.0 556.0 Z" fill-rule="evenodd"/>
<path d="M 778.0 397.0 L 773.0 394.0 L 770.0 394.0 L 769.0 393.0 L 762.0 394.0 L 757.0 397.0 L 755.0 399.0 L 752.0 405.0 L 752.0 412.0 L 751.0 413.0 L 751.0 417.0 L 749.0 423.0 L 745.0 431.0 L 739.0 439.0 L 733.0 445.0 L 725.0 451.0 L 711.0 457.0 L 698.0 459.0 L 692.0 462.0 L 689.0 465.0 L 687.0 470.0 L 687.0 479.0 L 689.0 483.0 L 695.0 489.0 L 698.0 490.0 L 707.0 490.0 L 708.0 489.0 L 714.0 489.0 L 715.0 488.0 L 718.0 488.0 L 719.0 487.0 L 722.0 487.0 L 728.0 485.0 L 740.0 479.0 L 749.0 473.0 L 760.0 463.0 L 772.0 447.0 L 778.0 435.0 L 781.0 426.0 L 782.0 417.0 L 783.0 416.0 L 783.0 405.0 L 780.0 399.0 Z" fill-rule="evenodd"/>
<path d="M 137.0 397.0 L 134.0 401.0 L 132.0 406.0 L 133.0 422.0 L 134.0 423.0 L 134.0 426.0 L 137.0 435.0 L 140.0 440.0 L 140.0 442.0 L 152.0 460.0 L 166.0 473.0 L 175.0 479.0 L 185.0 484.0 L 197.0 488.0 L 205.0 489.0 L 206.0 490.0 L 215.0 490.0 L 221.0 488.0 L 226.0 483.0 L 228.0 478.0 L 228.0 470.0 L 225.0 464.0 L 219.0 459.0 L 203.0 457.0 L 192.0 452.0 L 186.0 448.0 L 173.0 435.0 L 169.0 429.0 L 164.0 417.0 L 163.0 404.0 L 161.0 400.0 L 155.0 395.0 L 149.0 394.0 L 148.0 393.0 L 142.0 394.0 Z" fill-rule="evenodd"/>
<path d="M 528.0 365.0 L 525.0 368.0 L 525.0 370.0 L 524.0 371.0 L 524.0 383.0 L 525.0 384.0 L 526.0 395.0 L 532.0 411.0 L 542.0 426.0 L 557.0 440.0 L 568.0 447.0 L 581.0 453.0 L 583.0 453.0 L 587.0 455.0 L 590.0 455.0 L 591.0 456.0 L 596.0 456.0 L 597.0 457.0 L 609.0 457.0 L 614.0 454.0 L 617.0 451.0 L 620.0 443.0 L 618.0 434.0 L 613.0 429.0 L 609.0 427.0 L 603.0 426.0 L 602.0 425.0 L 597.0 425.0 L 596.0 424.0 L 591.0 423.0 L 588.0 421.0 L 586.0 421.0 L 574.0 413.0 L 568.0 407.0 L 561.0 397.0 L 557.0 388.0 L 554.0 373.0 L 551.0 367.0 L 546.0 362.0 L 544.0 361.0 L 535.0 361.0 Z" fill-rule="evenodd"/>
<path d="M 390.0 368.0 L 384.0 363.0 L 379.0 361.0 L 372.0 361.0 L 367.0 363.0 L 364.0 366.0 L 362.0 370.0 L 362.0 372.0 L 360.0 376.0 L 360.0 379.0 L 359.0 380.0 L 359.0 384.0 L 358.0 385.0 L 357.0 392.0 L 349.0 404.0 L 338.0 415.0 L 329.0 421.0 L 327.0 421.0 L 318.0 425.0 L 313.0 425.0 L 312.0 426.0 L 306.0 427.0 L 302.0 429.0 L 297.0 434.0 L 295.0 443.0 L 298.0 451.0 L 306.0 457.0 L 318.0 457.0 L 319.0 456.0 L 324.0 456.0 L 325.0 455.0 L 332.0 454.0 L 340.0 450.0 L 342.0 450.0 L 349.0 446.0 L 367.0 432.0 L 367.0 431.0 L 377.0 420.0 L 378.0 417.0 L 382.0 412.0 L 387.0 401.0 L 389.0 391.0 L 390.0 390.0 L 390.0 384.0 L 391.0 383.0 L 391.0 371.0 L 390.0 370.0 Z" fill-rule="evenodd"/>
<path d="M 260.0 238.0 L 255.0 233.0 L 249.0 230.0 L 242.0 230.0 L 236.0 233.0 L 231.0 239.0 L 230.0 245.0 L 229.0 246.0 L 229.0 253.0 L 227.0 259.0 L 220.0 272.0 L 211.0 282.0 L 204.0 287.0 L 194.0 292.0 L 177.0 296.0 L 169.0 300.0 L 165.0 305.0 L 164.0 311.0 L 168.0 321.0 L 173.0 325.0 L 176.0 326.0 L 190.0 326.0 L 191.0 325.0 L 199.0 324.0 L 210.0 319.0 L 212.0 319.0 L 214.0 317.0 L 219.0 315.0 L 228.0 309.0 L 237.0 300.0 L 238.0 300.0 L 250.0 284.0 L 256.0 272.0 L 258.0 266.0 L 258.0 263.0 L 259.0 262.0 L 259.0 258.0 L 260.0 257.0 L 260.0 247.0 L 261.0 246.0 Z" fill-rule="evenodd"/>
<path d="M 659.0 233.0 L 657.0 235.0 L 655.0 240.0 L 655.0 257.0 L 656.0 258.0 L 656.0 262.0 L 657.0 263.0 L 657.0 266.0 L 659.0 272.0 L 665.0 284.0 L 672.0 294.0 L 687.0 309.0 L 696.0 315.0 L 710.0 322.0 L 716.0 324.0 L 719.0 324.0 L 720.0 325.0 L 730.0 326.0 L 731.0 327.0 L 736.0 327.0 L 743.0 324.0 L 748.0 319.0 L 750.0 315.0 L 750.0 306.0 L 748.0 302.0 L 745.0 299.0 L 741.0 297.0 L 718.0 291.0 L 710.0 287.0 L 705.0 283.0 L 696.0 273.0 L 692.0 267.0 L 686.0 253.0 L 686.0 246.0 L 685.0 245.0 L 685.0 242.0 L 682.0 236.0 L 678.0 232.0 L 670.0 229.0 L 667.0 229.0 Z" fill-rule="evenodd"/>
<path d="M 612.0 150.0 L 606.0 148.0 L 599.0 148.0 L 598.0 149.0 L 592.0 149.0 L 591.0 150.0 L 587.0 150.0 L 586.0 151.0 L 580.0 152.0 L 569.0 157.0 L 558.0 164.0 L 544.0 177.0 L 534.0 191.0 L 529.0 201.0 L 527.0 207.0 L 527.0 210.0 L 526.0 211.0 L 526.0 214.0 L 525.0 215.0 L 524.0 234.0 L 526.0 238.0 L 530.0 242.0 L 537.0 245.0 L 541.0 245.0 L 548.0 242.0 L 552.0 238.0 L 555.0 231.0 L 556.0 222.0 L 560.0 210.0 L 567.0 199.0 L 574.0 192.0 L 588.0 183.0 L 597.0 180.0 L 606.0 180.0 L 613.0 177.0 L 617.0 173.0 L 619.0 169.0 L 620.0 163.0 L 617.0 155.0 Z" fill-rule="evenodd"/>
<path d="M 304.0 149.0 L 298.0 155.0 L 296.0 159.0 L 295.0 165.0 L 298.0 173.0 L 302.0 177.0 L 306.0 179.0 L 309.0 179.0 L 310.0 180.0 L 318.0 180.0 L 319.0 181.0 L 327.0 183.0 L 337.0 189.0 L 353.0 206.0 L 358.0 217.0 L 359.0 226.0 L 360.0 227.0 L 361.0 233.0 L 365.0 240.0 L 370.0 244.0 L 372.0 244.0 L 373.0 245.0 L 379.0 245.0 L 385.0 242.0 L 389.0 238.0 L 391.0 234.0 L 391.0 222.0 L 390.0 221.0 L 389.0 210.0 L 388.0 209.0 L 386.0 201.0 L 381.0 191.0 L 369.0 175.0 L 354.0 162.0 L 342.0 155.0 L 340.0 155.0 L 331.0 151.0 L 324.0 150.0 L 323.0 149.0 L 312.0 149.0 L 311.0 148.0 Z" fill-rule="evenodd"/>
<path d="M 338.0 5.0 L 265.0 73.0 L 167.0 89.0 L 77.0 218.0 L 79.0 310.0 L 41.0 355.0 L 43.0 434.0 L 2.0 509.0 L 39.0 608.0 L 4.0 710.0 L 87.0 786.0 L 89.0 852.0 L 132.0 902.0 L 236.0 899.0 L 334.0 979.0 L 446.0 935.0 L 472.0 854.0 L 474.0 93.0 L 512.0 42.0 L 573.0 37.0 L 631.0 114.0 L 726.0 112.0 L 753.0 192.0 L 806.0 226.0 L 796.0 320.0 L 845.0 369.0 L 835.0 444.0 L 882.0 517.0 L 829.0 606.0 L 880.0 703.0 L 850.0 743.0 L 785.0 756.0 L 787.0 857.0 L 735.0 883.0 L 662.0 852.0 L 588.0 945.0 L 484.0 933.0 L 520.0 972.0 L 596.0 976.0 L 679.0 899.0 L 737.0 915.0 L 796.0 893.0 L 828.0 786.0 L 889.0 751.0 L 913.0 700.0 L 877.0 609.0 L 912.0 503.0 L 872.0 434.0 L 875.0 359.0 L 836.0 310.0 L 845.0 236.0 L 724.0 74.0 L 650.0 73.0 L 600.0 15.0 L 537.0 0.0 L 481.0 26.0 L 443.0 86.0 L 441.0 878.0 L 411.0 926.0 L 316.0 941.0 L 250.0 851.0 L 194.0 882.0 L 147.0 874.0 L 115.0 824.0 L 131.0 757.0 L 65.0 743.0 L 35.0 703.0 L 42.0 654.0 L 86.0 614.0 L 33.0 517.0 L 80.0 444.0 L 69.0 371.0 L 119.0 320.0 L 105.0 233.0 L 162.0 192.0 L 196.0 107.0 L 284.0 114.0 L 351.0 34.0 L 435.0 51.0 L 403.0 7.0 Z" fill-rule="evenodd"/>
</svg>